<svg xmlns="http://www.w3.org/2000/svg" viewBox="0 0 760 160" role="img" aria-labelledby="title">
  <title>Caleonis Reception</title>
  <g fill="none" fill-rule="evenodd">
    <rect x="12" y="12" width="136" height="136" rx="38" fill="#0B0B0D"/>
    <path d="M54 55c0-12 10-22 22-22h8c12 0 22 10 22 22v50c0 12-10 22-22 22h-8c-12 0-22-10-22-22V55Z" fill="#fff"/>
    <path d="M43 80a8 8 0 0 1 16 0v18c0 12 9 21 21 21s21-9 21-21V80a8 8 0 0 1 16 0v18c0 18-12 33-29 37v9h15a8 8 0 0 1 0 16H57a8 8 0 0 1 0-16h15v-9c-17-4-29-19-29-37V80Z" fill="#fff"/>
    <text x="178" y="78" font-family="Inter,Arial,sans-serif" font-size="52" font-weight="700" fill="#0B0B0D">Caleonis</text>
    <text x="180" y="119" font-family="Inter,Arial,sans-serif" font-size="34" font-weight="500" fill="#0B0B0D">Reception</text>
  </g>
</svg>